<?xml version="1.0" encoding="utf-8"?>
<!-- Generator: Adobe Illustrator 25.0.1, SVG Export Plug-In . SVG Version: 6.00 Build 0)  -->
<svg version="1.1" id="Markenzeichen" xmlns="http://www.w3.org/2000/svg" xmlns:xlink="http://www.w3.org/1999/xlink" x="0px"
	 y="0px" viewBox="0 0 298.77 170.08" style="enable-background:new 0 0 298.77 170.08;" xml:space="preserve">
<g>
	<polygon points="67.94,11.34 57.39,11.34 57.39,30.11 21.91,30.11 21.91,11.34 11.35,11.34 11.35,39.69 67.94,39.69 	"/>
	<path d="M246.97,25.51c0-8.6-5.67-14.17-15.54-14.17h-42.91v28.35h42.91C241.3,39.69,246.97,34.11,246.97,25.51z M199.07,30.11
		v-9.19h31.87c3.23,0,5.47,1.47,5.47,4.59s-2.25,4.59-5.47,4.59L199.07,30.11L199.07,30.11z"/>
	<polygon points="21.91,60.6 57.39,60.6 57.39,79.37 67.94,79.37 67.94,51.02 11.35,51.02 11.35,79.37 21.91,79.37 	"/>
	<polygon points="112.52,61.38 147.41,79.37 168.62,79.37 112.52,51.02 101.96,51.02 101.96,79.37 112.52,79.37 	"/>
	<path d="M246.97,65.2c0-8.6-5.67-14.17-15.54-14.17h-42.91v28.35h42.91C241.3,79.37,246.97,73.8,246.97,65.2z M230.94,69.79h-31.87
		V60.6h31.87c3.23,0,5.47,1.47,5.47,4.59C236.41,68.32,234.16,69.79,230.94,69.79z"/>
	<polygon points="168.62,11.34 147.41,11.34 112.52,29.32 112.52,11.34 101.96,11.34 101.96,39.69 112.52,39.69 	"/>
	<polygon points="20.35,107.59 13.23,107.59 13.23,101.98 11.34,101.98 11.34,114.86 13.23,114.86 13.23,109.25 20.35,109.25 
		20.35,114.86 22.23,114.86 22.23,101.98 20.35,101.98 	"/>
	<path d="M29.97,104.92c-2.94,0-5.1,1.94-5.1,5.1s2.16,5.1,5.1,5.1s5.12-1.94,5.12-5.1S32.91,104.92,29.97,104.92z M29.97,113.6
		c-2.03,0-3.25-1.42-3.25-3.57s1.22-3.57,3.25-3.57c2.05,0,3.25,1.42,3.25,3.57S32.02,113.6,29.97,113.6z"/>
	<path d="M41.82,106.48c1.35,0,2.31,0.72,2.53,1.94h1.89c-0.26-2.22-1.87-3.5-4.4-3.5c-3.03,0-5.05,2.02-5.05,5.1s2.02,5.1,5.05,5.1
		c2.53,0,4.14-1.28,4.4-3.5h-1.89c-0.22,1.22-1.18,1.94-2.53,1.94c-1.98,0-3.18-1.31-3.18-3.55S39.85,106.48,41.82,106.48z"/>
	<path d="M57.36,114.86v-5.97c0-2.64-1.37-3.96-3.75-3.96c-1.42,0-2.66,0.67-3.09,1.92v-4.86h-1.76v12.87h1.76v-5.42
		c0-1.85,0.96-2.9,2.64-2.9c1.59,0,2.44,0.83,2.44,2.53v5.79H57.36z"/>
	<path d="M63.82,106.42c1.74,0,2.31,0.72,2.48,2h1.91c-0.13-2.42-1.72-3.5-4.37-3.5c-2.4,0-3.86,1.11-3.86,2.89
		c0,1.7,0.94,2.42,3.09,2.85l1.41,0.28c1.22,0.24,1.83,0.54,1.83,1.33c0,0.89-0.72,1.37-2.09,1.37c-1.76,0-2.33-0.72-2.46-2h-1.94
		c0.13,2.42,1.74,3.5,4.38,3.5c2.39,0,3.87-1.11,3.87-2.88c0-1.7-0.94-2.42-3.11-2.85l-1.39-0.28c-1.24-0.24-1.85-0.54-1.85-1.33
		C61.71,106.9,62.43,106.42,63.82,106.42z"/>
	<path d="M75.14,115.13c2.53,0,4.14-1.28,4.4-3.5h-1.89c-0.22,1.22-1.18,1.94-2.53,1.94c-1.98,0-3.18-1.31-3.18-3.55
		c0-2.26,1.2-3.55,3.18-3.55c1.35,0,2.31,0.72,2.53,1.94h1.89c-0.26-2.22-1.87-3.5-4.4-3.5c-3.03,0-5.05,2.02-5.05,5.1
		S72.11,115.13,75.14,115.13z"/>
	<path d="M83.82,109.44c0-1.85,0.96-2.9,2.64-2.9c1.59,0,2.44,0.83,2.44,2.53v5.79h1.76v-5.97c0-2.64-1.37-3.96-3.75-3.96
		c-1.42,0-2.66,0.67-3.09,1.92v-4.86h-1.76v12.87h1.76C83.82,114.86,83.82,109.44,83.82,109.44z"/>
	<path d="M97.14,115.13c1.41,0,2.61-0.67,3.03-1.92v1.65h1.76v-9.65h-1.76v5.42c0,1.85-0.94,2.9-2.59,2.9
		c-1.53,0-2.35-0.83-2.35-2.53v-5.79h-1.76v5.97C93.48,113.82,94.81,115.13,97.14,115.13z"/>
	<rect x="105.11" y="101.98" width="1.76" height="12.87"/>
	<path d="M118.84,109.64c0-2.85-1.7-4.72-4.66-4.72c-2.83,0-4.86,1.96-4.86,5.1c0,3.12,1.78,5.1,5.01,5.1c2.57,0,4.14-1.42,4.36-3.5
		h-1.92c-0.02,1.04-1,1.96-2.61,1.96c-1.7,0-2.92-1.18-3-3.07h7.64C118.84,110.23,118.84,109.94,118.84,109.64z M111.2,109.09
		c0.22-1.68,1.41-2.64,3-2.64c1.81,0,2.83,0.94,2.83,2.64H111.2z"/>
	<path d="M135.43,114.86v-12.87h-1.74v4.97c-0.63-1.37-1.94-2.03-3.53-2.03c-2.76,0-4.61,2.03-4.61,5.1s1.85,5.1,4.61,5.1
		c1.59,0,2.9-0.67,3.53-2.03v1.76H135.43z M130.59,113.52c-1.98,0-3.18-1.31-3.18-3.5s1.2-3.5,3.18-3.5c1.92,0,3.09,1.33,3.09,3.5
		S132.51,113.52,130.59,113.52z"/>
	<path d="M147.42,109.64c0-2.85-1.7-4.72-4.66-4.72c-2.83,0-4.86,1.96-4.86,5.1c0,3.12,1.78,5.1,5.01,5.1c2.57,0,4.14-1.42,4.37-3.5
		h-1.92c-0.02,1.04-1,1.96-2.61,1.96c-1.7,0-2.92-1.18-3-3.07h7.64C147.42,110.23,147.42,109.94,147.42,109.64z M139.78,109.09
		c0.22-1.68,1.41-2.64,3-2.64c1.81,0,2.83,0.94,2.83,2.64H139.78z"/>
	<path d="M149.86,105.2v9.65h1.76v-6.44c0-1.05,0.39-1.68,1.42-1.68h2.4v-1.54h-1.81c-1.05,0-1.81,0.44-2.02,1.29v-1.29h-1.75V105.2
		z"/>
	<polygon points="164.44,101.98 162.56,101.98 162.56,114.86 164.44,114.86 164.44,109.22 170.12,114.86 172.82,114.86 
		166.2,108.38 172.75,101.98 170.14,101.98 164.44,107.62 	"/>
	<rect x="179.43" y="101.98" width="1.74" height="2.15"/>
	<path d="M177.71,115.13c1.41,0,2.61-0.67,3.03-1.92v1.65h1.76v-9.65h-1.76v5.42c0,1.85-0.94,2.9-2.59,2.9
		c-1.54,0-2.35-0.83-2.35-2.53v-5.79h-1.76v5.97C174.04,113.82,175.38,115.13,177.71,115.13z"/>
	<rect x="175.56" y="101.98" width="1.76" height="2.15"/>
	<path d="M192.52,109.07v5.79h1.76v-5.97c0-2.64-1.37-3.96-3.75-3.96c-1.42,0-2.66,0.67-3.09,1.92v-1.65h-1.76v9.65h1.76v-5.42
		c0-1.85,0.96-2.9,2.64-2.9C191.67,106.53,192.52,107.37,192.52,109.07z"/>
	<path d="M204.97,112.25c0-1.7-0.94-2.42-3.11-2.85l-1.39-0.28c-1.24-0.24-1.85-0.54-1.85-1.33c0-0.89,0.72-1.37,2.11-1.37
		c1.74,0,2.31,0.72,2.48,2h1.9c-0.13-2.42-1.72-3.5-4.36-3.5c-2.4,0-3.87,1.11-3.87,2.89c0,1.7,0.94,2.42,3.09,2.85l1.41,0.28
		c1.22,0.24,1.83,0.54,1.83,1.33c0,0.89-0.72,1.37-2.09,1.37c-1.76,0-2.33-0.72-2.46-2h-1.94c0.13,2.42,1.74,3.5,4.38,3.5
		C203.49,115.13,204.97,114.02,204.97,112.25z"/>
	<path d="M208.55,101.98v3.22h-2.29v1.54h2.29v5.31c0,2,0.74,2.81,2.75,2.81h1.94v-1.54h-1.79c-0.85,0-1.15-0.39-1.15-1.22v-5.36
		h2.94v-1.54h-2.94v-3.22C210.3,101.98,208.55,101.98,208.55,101.98z"/>
	<path d="M219.33,104.92c-2.83,0-4.86,1.96-4.86,5.1c0,3.12,1.78,5.1,5.01,5.1c2.57,0,4.14-1.42,4.36-3.5h-1.92
		c-0.02,1.04-1,1.96-2.61,1.96c-1.7,0-2.92-1.18-3-3.07h7.64c0.04-0.3,0.04-0.59,0.04-0.89
		C223.99,106.79,222.29,104.92,219.33,104.92z M216.35,109.09c0.22-1.68,1.41-2.64,3-2.64c1.81,0,2.83,0.94,2.83,2.64H216.35z"/>
	<path d="M241.77,111.43c0-1.89-1.04-2.87-2.55-3.01c1.52-0.15,2.55-1.13,2.55-3.01c0-2.03-1.57-3.42-4.05-3.42h-6.07v12.87h6.07
		C240.2,114.86,241.77,113.47,241.77,111.43z M233.54,103.67h4.16c1.33,0,2.13,0.7,2.13,1.96c0,1.2-0.8,1.96-2.05,1.96h-4.24V103.67
		z M233.54,113.17v-3.92h4.24c1.26,0,2.05,0.76,2.05,1.96c0,1.26-0.8,1.96-2.13,1.96H233.54z"/>
	<path d="M244.01,110.03c0,3.12,1.78,5.1,5.01,5.1c2.57,0,4.14-1.42,4.36-3.5h-1.92c-0.02,1.04-1,1.96-2.61,1.96
		c-1.7,0-2.92-1.18-3-3.07h7.64c0.04-0.3,0.04-0.59,0.04-0.89c0-2.85-1.7-4.72-4.66-4.72C246.04,104.92,244.01,106.88,244.01,110.03
		z M248.89,106.44c1.81,0,2.83,0.94,2.83,2.64h-5.83C246.12,107.4,247.3,106.44,248.89,106.44z"/>
	<path d="M261.56,105.2h-1.81c-1.05,0-1.81,0.44-2.02,1.29v-1.29h-1.76v9.65h1.76v-6.44c0-1.05,0.39-1.68,1.42-1.68h2.4
		L261.56,105.2L261.56,105.2z"/>
	<path d="M270.3,109.07v5.79h1.76v-5.97c0-2.64-1.37-3.96-3.75-3.96c-1.42,0-2.66,0.67-3.09,1.92v-1.65h-1.76v9.65h1.76v-5.42
		c0-1.85,0.96-2.9,2.64-2.9C269.44,106.53,270.3,107.37,270.3,109.07z"/>
	<polygon points="20.35,129.59 13.23,129.59 13.23,123.98 11.34,123.98 11.34,136.86 13.23,136.86 13.23,131.25 20.35,131.25 
		20.35,136.86 22.23,136.86 22.23,123.98 20.35,123.98 	"/>
	<path d="M33.59,131.4c0-2.98-1.37-4.48-4.12-4.48c-2.4,0-4.11,1.35-4.31,3.5h1.85c0.07-1.22,0.98-1.96,2.42-1.96
		c1.59,0,2.31,0.76,2.42,2.5c-0.76,0.05-1.59,0.11-2.44,0.18c-2.96,0.26-4.27,1.26-4.27,3.14c0,1.76,1.31,2.85,3.4,2.85
		c1.55,0,2.72-0.67,3.35-1.87c0,0.41,0.07,1.15,0.17,1.59h1.78c-0.17-0.76-0.24-1.98-0.24-3.96L33.59,131.4L33.59,131.4z
		 M28.99,135.69c-1.24,0-1.94-0.57-1.94-1.52c0-1.04,0.61-1.52,2.9-1.76c0.68-0.06,1.31-0.11,1.9-0.15
		C31.76,134.58,30.85,135.69,28.99,135.69z"/>
	<path d="M44.84,136.86v-9.65h-1.76v5.42c0,1.85-0.94,2.9-2.59,2.9c-1.54,0-2.35-0.83-2.35-2.53v-5.79h-1.76v5.97
		c0,2.64,1.33,3.96,3.66,3.96c1.41,0,2.61-0.67,3.03-1.92v1.65L44.84,136.86L44.84,136.86z"/>
	<path d="M50.67,123.98h-1.76v3.22h-2.29v1.54h2.29v5.31c0,2,0.74,2.81,2.76,2.81h1.94v-1.54h-1.79c-0.85,0-1.15-0.39-1.15-1.22
		v-5.36h2.94v-1.54h-2.94C50.67,127.2,50.67,123.98,50.67,123.98z"/>
	<path d="M64.12,133.64H62.2c-0.02,1.04-1,1.96-2.61,1.96c-1.7,0-2.92-1.18-3-3.07h7.64c0.04-0.3,0.04-0.59,0.04-0.89
		c0-2.85-1.7-4.72-4.66-4.72c-2.83,0-4.86,1.96-4.86,5.1c0,3.12,1.78,5.1,5.01,5.1C62.32,137.13,63.89,135.71,64.12,133.64z
		 M59.62,128.44c1.81,0,2.83,0.94,2.83,2.64h-5.83C56.85,129.4,58.03,128.44,59.62,128.44z"/>
	<path d="M80.17,133.64h-1.92c-0.02,1.04-1,1.96-2.61,1.96c-1.7,0-2.92-1.18-3-3.07h7.64c0.04-0.3,0.04-0.59,0.04-0.89
		c0-2.85-1.7-4.72-4.66-4.72c-2.83,0-4.86,1.96-4.86,5.1c0,3.12,1.78,5.1,5.01,5.1C78.38,137.13,79.95,135.71,80.17,133.64z
		 M75.68,128.44c1.81,0,2.83,0.94,2.83,2.64h-5.83C72.91,129.4,74.09,128.44,75.68,128.44z"/>
	<polygon points="76.66,126.13 78.47,123.98 76.42,123.98 74.77,126.13 	"/>
	<path d="M91.38,133.64H89.5c-0.22,1.22-1.18,1.94-2.53,1.94c-1.98,0-3.18-1.31-3.18-3.55c0-2.26,1.2-3.55,3.18-3.55
		c1.35,0,2.31,0.72,2.53,1.94h1.89c-0.26-2.22-1.87-3.5-4.4-3.5c-3.03,0-5.05,2.02-5.05,5.1s2.02,5.1,5.05,5.1
		C89.52,137.13,91.13,135.86,91.38,133.64z"/>
	<path d="M98.18,137.13c2.94,0,5.12-1.94,5.12-5.1s-2.18-5.1-5.12-5.1s-5.1,1.94-5.1,5.1S95.23,137.13,98.18,137.13z M98.18,128.46
		c2.05,0,3.25,1.42,3.25,3.57s-1.2,3.57-3.25,3.57c-2.03,0-3.25-1.42-3.25-3.57S96.14,128.46,98.18,128.46z"/>
	<rect x="105.65" y="123.98" width="1.76" height="12.87"/>
	<path d="M117.21,133.64c-0.02,1.04-1,1.96-2.61,1.96c-1.7,0-2.92-1.18-3-3.07h7.64c0.04-0.3,0.04-0.59,0.04-0.89
		c0-2.85-1.7-4.72-4.66-4.72c-2.83,0-4.86,1.96-4.86,5.1c0,3.12,1.78,5.1,5.01,5.1c2.57,0,4.14-1.42,4.36-3.5h-1.92V133.64z
		 M114.64,128.44c1.81,0,2.83,0.94,2.83,2.64h-5.83C111.87,129.4,113.05,128.44,114.64,128.44z"/>
	<path d="M133.95,136.86h1.74v-12.87h-1.74v4.97c-0.63-1.37-1.94-2.03-3.53-2.03c-2.76,0-4.61,2.03-4.61,5.1s1.85,5.1,4.61,5.1
		c1.59,0,2.9-0.67,3.53-2.03V136.86z M130.85,135.52c-1.98,0-3.18-1.31-3.18-3.5s1.2-3.5,3.18-3.5c1.92,0,3.09,1.33,3.09,3.5
		S132.77,135.52,130.85,135.52z"/>
	<path d="M147.59,131.64c0-2.85-1.7-4.72-4.66-4.72c-2.83,0-4.86,1.96-4.86,5.1c0,3.12,1.78,5.1,5.01,5.1c2.57,0,4.14-1.42,4.37-3.5
		h-1.92c-0.02,1.04-1,1.96-2.61,1.96c-1.7,0-2.92-1.18-3-3.07h7.64C147.59,132.23,147.59,131.94,147.59,131.64z M139.95,131.09
		c0.22-1.68,1.41-2.64,3-2.64c1.81,0,2.83,0.94,2.83,2.64H139.95z"/>
	<path d="M154.52,131.4l-1.39-0.28c-1.24-0.24-1.85-0.54-1.85-1.33c0-0.89,0.72-1.37,2.11-1.37c1.74,0,2.31,0.72,2.48,2h1.9
		c-0.13-2.42-1.72-3.5-4.36-3.5c-2.4,0-3.87,1.11-3.87,2.89c0,1.7,0.94,2.42,3.09,2.85l1.41,0.28c1.22,0.24,1.83,0.54,1.83,1.33
		c0,0.89-0.72,1.37-2.09,1.37c-1.76,0-2.33-0.72-2.46-2h-1.94c0.13,2.42,1.74,3.5,4.38,3.5c2.39,0,3.87-1.11,3.87-2.88
		C157.63,132.55,156.69,131.83,154.52,131.4z"/>
	<path d="M169.2,126.92c-2.4,0-4.11,1.35-4.31,3.5h1.85c0.07-1.22,0.98-1.96,2.42-1.96c1.59,0,2.31,0.76,2.42,2.5
		c-0.76,0.05-1.59,0.11-2.44,0.18c-2.96,0.26-4.27,1.26-4.27,3.14c0,1.76,1.31,2.85,3.4,2.85c1.55,0,2.72-0.67,3.35-1.87
		c0,0.41,0.07,1.15,0.17,1.59h1.78c-0.17-0.76-0.24-1.98-0.24-3.96v-1.5C173.32,128.42,171.95,126.92,169.2,126.92z M168.71,135.69
		c-1.24,0-1.94-0.57-1.94-1.52c0-1.04,0.61-1.52,2.9-1.76c0.68-0.06,1.31-0.11,1.9-0.15C171.49,134.58,170.58,135.69,168.71,135.69z
		"/>
	<path d="M181.89,127.2h-1.81c-1.05,0-1.81,0.44-2.02,1.29v-1.29h-1.76v9.65h1.76v-6.44c0-1.05,0.39-1.68,1.42-1.68h2.4v-1.53
		H181.89z"/>
	<path d="M186.97,123.98h-1.76v3.22h-2.29v1.54h2.29v5.31c0,2,0.74,2.81,2.75,2.81h1.94v-1.54h-1.79c-0.85,0-1.15-0.39-1.15-1.22
		v-5.36h2.94v-1.54h-2.94L186.97,123.98L186.97,123.98z"/>
	<path d="M195.52,128.42c1.74,0,2.31,0.72,2.48,2h1.9c-0.13-2.42-1.72-3.5-4.36-3.5c-2.4,0-3.87,1.11-3.87,2.89
		c0,1.7,0.94,2.42,3.09,2.85l1.41,0.28c1.22,0.24,1.83,0.54,1.83,1.33c0,0.89-0.72,1.37-2.09,1.37c-1.76,0-2.33-0.72-2.46-2h-1.94
		c0.13,2.42,1.74,3.5,4.38,3.5c2.39,0,3.87-1.11,3.87-2.88c0-1.7-0.94-2.42-3.11-2.85l-1.39-0.28c-1.24-0.24-1.85-0.54-1.85-1.33
		C193.41,128.9,194.13,128.42,195.52,128.42z"/>
	<path d="M214.76,128.96c-0.63-1.37-1.94-2.03-3.53-2.03c-2.76,0-4.61,2.03-4.61,5.1s1.85,5.1,4.61,5.1c1.59,0,2.9-0.67,3.53-2.03
		v1.76h1.74v-12.87h-1.74V128.96z M211.65,135.52c-1.98,0-3.18-1.31-3.18-3.5s1.2-3.5,3.18-3.5c1.92,0,3.09,1.33,3.09,3.5
		S213.58,135.52,211.65,135.52z"/>
	<path d="M228.39,131.64c0-2.85-1.7-4.72-4.66-4.72c-2.83,0-4.86,1.96-4.86,5.1c0,3.12,1.78,5.1,5.01,5.1c2.57,0,4.14-1.42,4.36-3.5
		h-1.92c-0.02,1.04-1,1.96-2.61,1.96c-1.7,0-2.92-1.18-3-3.07h7.64C228.39,132.23,228.39,131.94,228.39,131.64z M220.76,131.09
		c0.22-1.68,1.41-2.64,3-2.64c1.81,0,2.83,0.94,2.83,2.64H220.76z"/>
	<path d="M245.98,127.41c0-2.03-1.57-3.42-4.05-3.42h-6.07v12.87h6.07c2.48,0,4.05-1.39,4.05-3.42c0-1.89-1.04-2.87-2.55-3.01
		C244.95,130.27,245.98,129.29,245.98,127.41z M244.04,133.21c0,1.26-0.8,1.96-2.13,1.96h-4.16v-3.92h4.24
		C243.25,131.25,244.04,132.01,244.04,133.21z M241.99,129.59h-4.24v-3.92h4.16c1.33,0,2.13,0.7,2.13,1.96
		C244.04,128.83,243.25,129.59,241.99,129.59z"/>
	<path d="M253,126.92c-2.83,0-4.86,1.96-4.86,5.1c0,3.12,1.78,5.1,5.01,5.1c2.57,0,4.14-1.42,4.36-3.5h-1.92
		c-0.02,1.04-1,1.96-2.61,1.96c-1.7,0-2.92-1.18-3-3.07h7.64c0.04-0.3,0.04-0.59,0.04-0.89C257.66,128.79,255.96,126.92,253,126.92z
		 M250.02,131.09c0.22-1.68,1.41-2.64,3-2.64c1.81,0,2.83,0.94,2.83,2.64H250.02z"/>
	<path d="M261.77,128.5v-1.29h-1.76v9.65h1.76v-6.44c0-1.05,0.39-1.68,1.42-1.68h2.4v-1.54h-1.81
		C262.73,127.2,261.97,127.65,261.77,128.5z"/>
	<path d="M272.24,126.92c-1.42,0-2.66,0.67-3.09,1.92v-1.65h-1.76v9.65h1.76v-5.42c0-1.85,0.96-2.9,2.64-2.9
		c1.59,0,2.44,0.83,2.44,2.53v5.79h1.76v-5.97C275.99,128.24,274.62,126.92,272.24,126.92z"/>
	<path d="M287.68,131.64c0-2.85-1.7-4.72-4.66-4.72c-2.83,0-4.86,1.96-4.86,5.1c0,3.12,1.78,5.1,5.01,5.1c2.57,0,4.14-1.42,4.37-3.5
		h-1.92c-0.02,1.04-1,1.96-2.61,1.96c-1.7,0-2.92-1.18-3-3.07h7.64C287.68,132.23,287.68,131.94,287.68,131.64z M280.05,131.09
		c0.22-1.68,1.41-2.64,3-2.64c1.81,0,2.83,0.94,2.83,2.64H280.05z"/>
	<g>
		<path d="M21.45,155.43c0,2.03-1.57,3.42-4.05,3.42h-6.07v-12.87h6.07c2.48,0,4.05,1.39,4.05,3.42c0,1.89-1.04,2.87-2.55,3.01
			C20.42,152.57,21.45,153.55,21.45,155.43z M13.22,147.67v3.92h4.24c1.26,0,2.05-0.76,2.05-1.96c0-1.26-0.8-1.96-2.13-1.96
			L13.22,147.67L13.22,147.67z M17.38,157.17c1.33,0,2.13-0.7,2.13-1.96c0-1.2-0.8-1.96-2.05-1.96h-4.24v3.92L17.38,157.17
			L17.38,157.17z"/>
		<path d="M33.18,154.53h-7.64c0.07,1.89,1.29,3.07,3,3.07c1.61,0,2.59-0.92,2.61-1.96h1.92c-0.22,2.07-1.79,3.5-4.37,3.5
			c-3.24,0-5.01-1.98-5.01-5.1c0-3.14,2.04-5.1,4.86-5.1c2.96,0,4.66,1.87,4.66,4.72C33.22,153.94,33.22,154.23,33.18,154.53z
			 M31.41,153.09c0-1.7-1.02-2.64-2.83-2.64c-1.59,0-2.77,0.96-3,2.64H31.41z"/>
		<path d="M41.25,149.2v1.54h-2.4c-1.04,0-1.42,0.63-1.42,1.68v6.44h-1.76v-9.65h1.76v1.29c0.2-0.85,0.96-1.29,2.02-1.29
			L41.25,149.2L41.25,149.2z"/>
		<path d="M43.14,158.86v-9.65h1.76v1.65c0.43-1.26,1.66-1.92,3.09-1.92c2.38,0,3.75,1.31,3.75,3.96v5.97h-1.76v-5.79
			c0-1.7-0.85-2.53-2.44-2.53c-1.68,0-2.64,1.05-2.64,2.9v5.42h-1.76V158.86z"/>
		<path d="M69.02,158.86l-1.17-3.35h-6.08l-1.17,3.35h-1.98l4.48-12.87h3.42L71,158.86H69.02z M62.34,153.83h4.92l-2.46-7.1
			L62.34,153.83z"/>
		<path d="M72.31,154.03c0-3.09,2.02-5.1,5.05-5.1c2.53,0,4.14,1.28,4.4,3.5h-1.89c-0.22-1.22-1.18-1.94-2.53-1.94
			c-1.98,0-3.18,1.29-3.18,3.55c0,2.24,1.2,3.55,3.18,3.55c1.35,0,2.31-0.72,2.53-1.94h1.89c-0.26,2.22-1.87,3.5-4.4,3.5
			C74.33,159.13,72.31,157.12,72.31,154.03z"/>
		<path d="M92.36,154.9c0,1.98,0.07,3.2,0.24,3.96h-1.78c-0.09-0.44-0.17-1.18-0.17-1.59c-0.63,1.2-1.79,1.87-3.35,1.87
			c-2.09,0-3.4-1.09-3.4-2.85c0-1.89,1.31-2.88,4.27-3.14c0.85-0.07,1.68-0.13,2.44-0.19c-0.11-1.74-0.83-2.5-2.42-2.5
			c-1.44,0-2.35,0.74-2.42,1.96h-1.85c0.2-2.15,1.91-3.5,4.31-3.5c2.75,0,4.12,1.5,4.12,4.48L92.36,154.9L92.36,154.9z
			 M90.63,154.27c-0.59,0.04-1.22,0.09-1.91,0.15c-2.29,0.24-2.9,0.72-2.9,1.76c0,0.94,0.7,1.52,1.94,1.52
			C89.63,157.69,90.53,156.58,90.63,154.27z"/>
		<path d="M104.57,145.98v12.87h-1.74v-1.76c-0.63,1.37-1.94,2.03-3.53,2.03c-2.76,0-4.61-2.03-4.61-5.1s1.85-5.1,4.61-5.1
			c1.59,0,2.9,0.67,3.53,2.03v-4.97L104.57,145.98L104.57,145.98z M102.82,154.03c0-2.16-1.17-3.5-3.09-3.5
			c-1.98,0-3.18,1.31-3.18,3.5c0,2.18,1.2,3.5,3.18,3.5C101.65,157.52,102.82,156.19,102.82,154.03z"/>
		<path d="M116.52,154.53h-7.64c0.07,1.89,1.29,3.07,3,3.07c1.61,0,2.59-0.92,2.61-1.96h1.92c-0.22,2.07-1.79,3.5-4.36,3.5
			c-3.24,0-5.01-1.98-5.01-5.1c0-3.14,2.04-5.1,4.86-5.1c2.96,0,4.66,1.87,4.66,4.72C116.56,153.94,116.56,154.23,116.52,154.53z
			 M114.75,153.09c0-1.7-1.02-2.64-2.83-2.64c-1.59,0-2.77,0.96-3,2.64H114.75z"/>
		<path d="M133.56,152.57v6.29h-1.76v-5.73c0-1.76-0.74-2.59-2.22-2.59c-1.55,0-2.42,1.07-2.42,2.72v5.6h-1.76v-5.66
			c0-1.81-0.76-2.66-2.2-2.66c-1.46,0-2.44,1-2.44,2.89v5.44H119v-9.65h1.76v1.63c0.41-1.24,1.63-1.9,3.01-1.9
			c1.54,0,2.59,0.67,3.09,1.9c0.54-1.26,1.76-1.9,3.14-1.9C132.32,148.92,133.56,150.22,133.56,152.57z"/>
		<path d="M142.7,149.2h1.89l-3.88,11.21c-0.37,1.09-1.02,1.66-2.29,1.66h-1.83v-1.53h1.5c0.61,0,0.91-0.2,1.13-0.89l0.26-0.8h-0.78
			l-3.53-9.65h1.94l2.87,8.17L142.7,149.2z"/>
		<path d="M161.05,154.03c0,3.16-2.18,5.1-5.12,5.1s-5.1-1.94-5.1-5.1s2.16-5.1,5.1-5.1S161.05,150.87,161.05,154.03z
			 M152.67,154.03c0,2.15,1.22,3.57,3.25,3.57c2.05,0,3.25-1.42,3.25-3.57c0-2.15-1.2-3.57-3.25-3.57
			C153.9,150.46,152.67,151.88,152.67,154.03z"/>
		<path d="M167.44,147.24c-0.83,0-1.17,0.39-1.17,1.22v0.74h3.31v1.54h-3.31v8.12h-1.74v-8.12H162v-1.54h2.53v-0.68
			c0-1.81,0.92-2.81,2.76-2.81h2.29v1.54h-2.14V147.24z"/>
		<path d="M182.33,150.74h-2.94v5.36c0,0.83,0.3,1.22,1.15,1.22h1.79v1.54h-1.94c-2.02,0-2.75-0.81-2.75-2.81v-5.31h-2.29v-1.54
			h2.29v-3.22h1.76v3.22h2.94L182.33,150.74L182.33,150.74z"/>
		<path d="M193.17,152.88v5.97h-1.76v-5.79c0-1.7-0.85-2.53-2.44-2.53c-1.68,0-2.64,1.05-2.64,2.9v5.42h-1.76v-12.87h1.76v4.86
			c0.43-1.26,1.66-1.92,3.09-1.92C191.8,148.92,193.17,150.24,193.17,152.88z"/>
		<path d="M204.92,154.53h-7.64c0.07,1.89,1.29,3.07,3,3.07c1.61,0,2.59-0.92,2.61-1.96h1.92c-0.22,2.07-1.79,3.5-4.37,3.5
			c-3.24,0-5.01-1.98-5.01-5.1c0-3.14,2.04-5.1,4.86-5.1c2.96,0,4.66,1.87,4.66,4.72C204.95,153.94,204.95,154.23,204.92,154.53z
			 M203.14,153.09c0-1.7-1.02-2.64-2.83-2.64c-1.59,0-2.77,0.96-3,2.64H203.14z"/>
		<path d="M221.68,158.86l-1.17-3.35h-6.08l-1.17,3.35h-1.98l4.48-12.87h3.42l4.48,12.87H221.68z M215,153.83h4.92l-2.46-7.1
			L215,153.83z"/>
		<path d="M231.3,149.2v1.54h-2.4c-1.04,0-1.42,0.63-1.42,1.68v6.44h-1.76v-9.65h1.76v1.29c0.2-0.85,0.96-1.29,2.02-1.29
			L231.3,149.2L231.3,149.2z"/>
		<path d="M239.42,150.74h-2.94v5.36c0,0.83,0.3,1.22,1.15,1.22h1.79v1.54h-1.94c-2.02,0-2.75-0.81-2.75-2.81v-5.31h-2.29v-1.54
			h2.29v-3.22h1.76v3.22h2.94L239.42,150.74L239.42,150.74z"/>
		<path d="M241.1,155.64h1.94c0.13,1.28,0.7,2,2.46,2c1.37,0,2.09-0.48,2.09-1.37c0-0.79-0.61-1.09-1.83-1.33l-1.41-0.28
			c-2.15-0.43-3.09-1.15-3.09-2.85c0-1.78,1.46-2.89,3.87-2.89c2.64,0,4.24,1.07,4.36,3.5h-1.9c-0.17-1.28-0.74-2-2.48-2
			c-1.39,0-2.11,0.48-2.11,1.37c0,0.79,0.61,1.09,1.85,1.33l1.39,0.28c2.16,0.43,3.11,1.15,3.11,2.85c0,1.78-1.48,2.88-3.87,2.88
			C242.84,159.13,241.23,158.06,241.1,155.64z"/>
	</g>
</g>
</svg>
